<svg width="26" height="23" viewBox="0 0 26 23" fill="none" xmlns="http://www.w3.org/2000/svg">
<path fill-rule="evenodd" clip-rule="evenodd" d="M15.6468 1.91675C19.1801 1.91675 21.2072 3.52579 21.2072 6.32892V20.2592C21.2072 20.8438 20.8801 21.37 20.3301 21.6642C19.7822 21.9593 19.1218 21.9651 18.5676 21.6776L12.3593 18.4509L6.09367 21.6843C5.82284 21.8242 5.52596 21.8951 5.22804 21.8951C4.92075 21.8951 4.61346 21.8194 4.33429 21.668C3.78534 21.3738 3.45825 20.8477 3.45825 20.264V6.15354C3.45825 3.46062 5.48638 1.91675 9.02284 1.91675H15.6468ZM15.6468 3.35425H9.02284C6.36763 3.35425 5.02075 4.29533 5.02075 6.15354V20.264C5.02075 20.3541 5.077 20.403 5.12388 20.4279C5.17075 20.4547 5.24471 20.4739 5.33013 20.4298L11.978 16.999C12.2155 16.8773 12.5062 16.8763 12.7447 17L19.3353 20.425C19.4218 20.471 19.4958 20.45 19.5426 20.4241C19.5895 20.3982 19.6447 20.3493 19.6447 20.2592L19.6443 6.21971C19.6365 5.3949 19.463 3.35425 15.6468 3.35425ZM16.1039 8.36489C16.5351 8.36489 16.8851 8.68689 16.8851 9.08364C16.8851 9.48039 16.5351 9.80239 16.1039 9.80239H8.48096C8.04971 9.80239 7.69971 9.48039 7.69971 9.08364C7.69971 8.68689 8.04971 8.36489 8.48096 8.36489H16.1039Z" fill="black"/>
</svg>
