<svg width="24" height="25" viewBox="0 0 24 25" fill="none" xmlns="http://www.w3.org/2000/svg">
<path fill-rule="evenodd" clip-rule="evenodd" d="M19.84 18.6932C19.84 21.9892 15.32 22.3702 11.921 22.3702L11.6778 22.3699C9.5122 22.3647 4 22.228 4 18.6732C4 15.4444 8.33835 15.0129 11.7115 14.9967L12.1642 14.9964C14.3296 15.0016 19.84 15.1383 19.84 18.6932ZM11.921 16.4962C7.66 16.4962 5.5 17.2282 5.5 18.6732C5.5 20.1312 7.66 20.8702 11.921 20.8702C16.181 20.8702 18.34 20.1382 18.34 18.6932C18.34 17.2352 16.181 16.4962 11.921 16.4962ZM11.921 2.49976C14.849 2.49976 17.23 4.88176 17.23 7.80976C17.23 10.7378 14.849 13.1188 11.921 13.1188H11.889C8.967 13.1098 6.6 10.7268 6.60997 7.80676C6.60997 4.88176 8.992 2.49976 11.921 2.49976ZM11.921 3.92776C9.78 3.92776 8.03798 5.66876 8.03798 7.80976C8.031 9.94376 9.76 11.6838 11.892 11.6918L11.921 12.4058V11.6918C14.061 11.6918 15.802 9.94976 15.802 7.80976C15.802 5.66876 14.061 3.92776 11.921 3.92776Z" fill="black"/>
</svg>
